# File created by Blade
# Date/Time:  Wed Jan 21 18:34:41 2015
# Frame Rate: 120.000 fps
#------------------------------------------------------
:FULLY-SPECIFIED
:DEGREES
1890
root 2.248901 32.627739 -5.533214 45.320932 3.809174 1.378747
RightUpLeg -36.744240 -17.485439 9.089056
RightLeg -3.841523 -0.000000 0.000000
RightFoot -10.394419 -1.005937 22.932059
RightToeBase 21.101082 -0.000000 -0.000000
LeftUpLeg -38.619011 11.159385 -2.896738
LeftLeg -0.278027 -0.000000 0.000000
LeftFoot -4.309730 -8.143749 -15.920753
LeftToeBase 3.158242 -0.000000 -0.000000
Spine -46.670991 0.637819 -2.258236
RightShoulder -29.937367 4.108709 -50.702647
RightArm -20.523899 -2.477845 46.528224
RightForeArm 7.174618 -0.000000 -6.199188
RightHand 8.609510 -0.000000 4.064960
RightHandThumb1 -24.326973 -0.000000 -32.862282
LeftShoulder -19.511557 11.741878 39.972943
LeftArm -0.508236 -25.964649 -50.869712
LeftForeArm 22.445607 0.000000 2.839454
LeftHand -28.734603 -0.000000 4.063521
LeftHandThumb1 -26.253704 0.000000 33.147579
Head -3.518478 -2.228219 5.911389
1891
root 2.252364 32.628109 -5.519924 45.285970 3.786994 1.381973
RightUpLeg -36.696978 -17.515946 9.079345
RightLeg -3.834626 -0.000000 0.000000
RightFoot -10.374898 -0.977319 22.942808
RightToeBase 21.065789 -0.000000 -0.000000
LeftUpLeg -38.541397 11.095243 -2.835694
LeftLeg -0.280512 -0.000000 0.000000
LeftFoot -4.330365 -8.079727 -15.985318
LeftToeBase 3.189181 -0.000000 -0.000000
Spine -46.655652 0.694820 -2.290003
RightShoulder -30.041499 3.984877 -50.815245
RightArm -20.811107 -2.372990 46.495919
RightForeArm 7.035445 0.000000 -6.106386
RightHand 8.595595 0.000000 3.907328
RightHandThumb1 -24.326973 -0.000000 -32.862282
LeftShoulder -19.589707 11.923589 39.965015
LeftArm -0.700524 -25.807984 -50.999238
LeftForeArm 22.383895 -0.000000 2.653753
LeftHand -28.655992 -0.000000 4.305732
LeftHandThumb1 -26.253704 0.000000 33.147579
Head -3.542531 -2.235184 5.821353
1892
root 2.254928 32.629349 -5.507867 45.251178 3.762984 1.394724
RightUpLeg -36.646991 -17.546096 9.060583
RightLeg -3.835861 -0.000000 0.000000
RightFoot -10.366744 -0.958099 22.953687
RightToeBase 21.055390 -0.000000 -0.000000
LeftUpLeg -38.486254 11.058515 -2.818724
LeftLeg -0.256843 -0.000000 0.000000
LeftFoot -4.354143 -8.013622 -15.963719
LeftToeBase 3.169678 -0.000000 -0.000000
Spine -46.639512 0.755151 -2.347171
RightShoulder -30.173962 3.817426 -50.906769
RightArm -20.986753 -2.329616 46.498048
RightForeArm 6.906317 -0.000000 -6.072940
RightHand 8.562616 0.000000 3.652771
RightHandThumb1 -24.326973 -0.000000 -32.862282
LeftShoulder -19.655523 12.091580 39.955652
LeftArm -0.938341 -26.049126 -51.141228
LeftForeArm 22.635848 0.000000 2.739887
LeftHand -28.672320 -0.000000 4.352437
LeftHandThumb1 -26.253704 0.000000 33.147579
Head -3.566885 -2.260886 5.736580
1893
root 2.258999 32.629957 -5.494516 45.213467 3.755444 1.399123
RightUpLeg -36.596214 -17.593658 9.061787
RightLeg -3.831646 -0.000000 0.000000
RightFoot -10.354508 -0.927882 22.955684
RightToeBase 21.082057 -0.000000 -0.000000
LeftUpLeg -38.408592 10.996367 -2.766239
LeftLeg -0.261715 -0.000000 0.000000
LeftFoot -4.373626 -7.945447 -16.002460
LeftToeBase 3.165329 -0.000000 -0.000000
Spine -46.632802 0.809313 -2.385174
RightShoulder -30.275146 3.641492 -50.992596
RightArm -21.159101 -2.410694 46.541771
RightForeArm 6.707994 -0.000000 -6.015655
RightHand 8.499181 -0.000000 3.754210
RightHandThumb1 -24.326973 -0.000000 -32.862282
LeftShoulder -19.724483 12.205407 39.954942
LeftArm -1.148059 -26.189363 -51.253739
LeftForeArm 22.919418 -0.000000 2.853488
LeftHand -29.132514 -0.000000 4.420567
LeftHandThumb1 -26.253704 0.000000 33.147579
Head -3.561965 -2.265424 5.657621
1894
root 2.263489 32.630646 -5.480931 45.180623 3.749462 1.405765
RightUpLeg -36.548463 -17.646502 9.065124
RightLeg -3.831626 -0.000000 0.000000
RightFoot -10.330169 -0.880733 22.959985
RightToeBase 21.066173 -0.000000 -0.000000
LeftUpLeg -38.352101 10.967316 -2.753472
LeftLeg -0.247238 -0.000000 0.000000
LeftFoot -4.405758 -7.888188 -15.968544
LeftToeBase 3.157093 -0.000000 -0.000000
Spine -46.634833 0.869559 -2.433651
RightShoulder -30.354682 3.495446 -51.080579
RightArm -21.373316 -2.588501 46.602397
RightForeArm 6.486744 -0.000000 -5.956176
RightHand 8.328733 -0.000000 3.804156
RightHandThumb1 -24.326973 -0.000000 -32.862282
LeftShoulder -19.779049 12.310491 40.008727
LeftArm -1.405047 -26.273162 -51.417260
LeftForeArm 23.014192 -0.000000 3.086292
LeftHand -28.721774 0.000000 3.936306
LeftHandThumb1 -26.253704 0.000000 33.147579
Head -3.546064 -2.303402 5.585319
1895
root 2.266825 32.631347 -5.468858 45.153290 3.740005 1.420239
RightUpLeg -36.500773 -17.687469 9.054046
RightLeg -3.843644 -0.000000 0.000000
RightFoot -10.313866 -0.859380 22.964993
RightToeBase 21.027158 -0.000000 -0.000000
LeftUpLeg -38.299313 10.936064 -2.742621
LeftLeg -0.239488 -0.000000 0.000000
LeftFoot -4.408270 -7.853470 -15.959784
LeftToeBase 3.146081 -0.000000 -0.000000
Spine -46.640488 0.906742 -2.477112
RightShoulder -30.388261 3.337964 -51.166320
RightArm -21.574571 -2.765559 46.706852
RightForeArm 6.401597 -0.000000 -5.895978
RightHand 8.272467 0.000000 3.737222
RightHandThumb1 -24.326973 -0.000000 -32.862282
LeftShoulder -19.845339 12.388266 40.017505
LeftArm -1.762000 -26.234075 -51.457454
LeftForeArm 23.349710 -0.000000 3.386331
LeftHand -29.405292 -0.000000 4.768710
LeftHandThumb1 -26.253704 0.000000 33.147579
Head -3.526451 -2.309981 5.516813
1896
root 2.270183 32.632073 -5.456209 45.126718 3.731471 1.430733
RightUpLeg -36.456845 -17.724141 9.045044
RightLeg -3.847255 -0.000000 0.000000
RightFoot -10.291986 -0.827766 23.017151
RightToeBase 20.986052 -0.000000 -0.000000
LeftUpLeg -38.255441 10.938702 -2.758712
LeftLeg -0.225777 -0.000000 0.000000
LeftFoot -4.419553 -7.848414 -15.953503
LeftToeBase 3.137761 -0.000000 -0.000000
Spine -46.647187 0.943542 -2.519356
RightShoulder -30.421726 3.109031 -51.209428
RightArm -21.659128 -2.938214 46.840833
RightForeArm 6.407551 -0.000000 -5.922769
RightHand 8.274888 0.000000 3.762816
RightHandThumb1 -24.326973 -0.000000 -32.862282
LeftShoulder -19.916000 12.482810 40.037044
LeftArm -2.053946 -26.296913 -51.523890
LeftForeArm 23.595921 -0.000000 3.701550
LeftHand -29.529987 -0.000000 4.855998
LeftHandThumb1 -26.253704 0.000000 33.147579
Head -3.506673 -2.326626 5.462520
1897
root 2.274095 32.633049 -5.445083 45.100349 3.722724 1.444923
RightUpLeg -36.414654 -17.755364 9.024295
RightLeg -3.847320 -0.000000 0.000000
RightFoot -10.284718 -0.805838 23.010691
RightToeBase 20.992289 -0.000000 -0.000000
LeftUpLeg -38.210636 10.943208 -2.781191
LeftLeg -0.221770 -0.000000 0.000000
LeftFoot -4.417015 -7.842800 -15.929352
LeftToeBase 3.124023 -0.000000 -0.000000
Spine -46.650122 0.980534 -2.565402
RightShoulder -30.463571 2.899636 -51.235381
RightArm -21.741338 -3.018471 46.884379
RightForeArm 6.230314 0.000000 -5.974188
RightHand 8.322754 -0.000000 3.864401
RightHandThumb1 -24.326973 -0.000000 -32.862282
LeftShoulder -19.980067 12.572974 40.055567
LeftArm -2.364850 -26.571954 -51.586270
LeftForeArm 24.054483 0.000000 4.098023
LeftHand -29.579728 -0.000000 5.010766
LeftHandThumb1 -26.253704 0.000000 33.147579
Head -3.496639 -2.349710 5.411411
1898
root 2.277741 32.633568 -5.434365 45.077353 3.722702 1.456467
RightUpLeg -36.372371 -17.780457 9.006507
RightLeg -3.848943 -0.000000 0.000000
RightFoot -10.285232 -0.813313 22.951198
RightToeBase 20.998141 -0.000000 -0.000000
LeftUpLeg -38.169940 10.948030 -2.799214
LeftLeg -0.218691 -0.000000 0.000000
LeftFoot -4.409482 -7.852068 -15.921147
LeftToeBase 3.107470 -0.000000 -0.000000
Spine -46.656490 1.030713 -2.618649
RightShoulder -30.524769 2.696814 -51.278117
RightArm -21.830308 -3.057153 46.952741
RightForeArm 6.481068 -0.000000 -5.964574
RightHand 8.282537 -0.000000 3.625245
RightHandThumb1 -24.326973 -0.000000 -32.862282
LeftShoulder -20.036520 12.663950 40.065466
LeftArm -2.621910 -26.694868 -51.667857
LeftForeArm 24.151042 0.000000 4.558950
LeftHand -29.369520 0.000000 4.763024
LeftHandThumb1 -26.253704 0.000000 33.147579
Head -3.486883 -2.404948 5.348929
1899
root 2.280189 32.634160 -5.424334 45.047503 3.718391 1.463558
RightUpLeg -36.321403 -17.796462 8.984993
RightLeg -3.853519 -0.000000 0.000000
RightFoot -10.297800 -0.807956 22.979790
RightToeBase 21.030991 -0.000000 -0.000000
LeftUpLeg -38.124147 10.967503 -2.818487
LeftLeg -0.221145 -0.000000 0.000000
LeftFoot -4.406153 -7.871310 -15.915509
LeftToeBase 3.132204 -0.000000 -0.000000
Spine -46.666557 1.053910 -2.646347
RightShoulder -30.522042 2.541831 -51.326972
RightArm -21.950524 -2.984276 46.957234
RightForeArm 6.514388 -0.000000 -5.963101
RightHand 8.227498 0.000000 3.578630
RightHandThumb1 -24.326973 -0.000000 -32.862282
LeftShoulder -20.088640 12.777899 40.068610
LeftArm -2.868067 -26.791127 -51.701243
LeftForeArm 24.414351 0.000000 4.881468
LeftHand -29.401549 -0.000000 4.913519
LeftHandThumb1 -26.253704 0.000000 33.147579
Head -3.433166 -2.438973 5.300194
1900
root 2.281241 32.634207 -5.415655 45.016072 3.708359 1.471194
RightUpLeg -36.272977 -17.789890 8.950959
RightLeg -3.850959 -0.000000 0.000000
RightFoot -10.307281 -0.830274 22.955214
RightToeBase 21.018035 -0.000000 -0.000000
LeftUpLeg -38.081813 11.003232 -2.847596
LeftLeg -0.215194 -0.000000 0.000000
LeftFoot -4.391554 -7.912216 -15.918450
LeftToeBase 3.095007 -0.000000 -0.000000
Spine -46.666841 1.110708 -2.716870
RightShoulder -30.575842 2.387179 -51.384277
RightArm -22.013166 -3.006705 46.992625
RightForeArm 6.678985 -0.000000 -6.057893
RightHand 8.269794 0.000000 3.440718
RightHandThumb1 -24.326973 -0.000000 -32.862282
LeftShoulder -20.130907 12.822766 40.063990
LeftArm -3.039186 -26.742478 -51.714115
LeftForeArm 24.466773 -0.000000 5.121156
LeftHand -29.559037 -0.000000 5.209712
LeftHandThumb1 -26.253704 0.000000 33.147579
Head -3.394925 -2.499530 5.256935
1901
root 2.283706 32.633775 -5.406469 44.990591 3.716360 1.473360
RightUpLeg -36.227376 -17.810598 8.942376
RightLeg -3.857210 -0.000000 0.000000
RightFoot -10.307946 -0.825510 22.982712
RightToeBase 21.031196 -0.000000 -0.000000
LeftUpLeg -38.041012 11.018519 -2.857460
LeftLeg -0.216820 -0.000000 0.000000
LeftFoot -4.393779 -7.936318 -15.914842
LeftToeBase 3.131325 -0.000000 -0.000000
Spine -46.684067 1.161092 -2.760350
RightShoulder -30.606116 2.252707 -51.470481
RightArm -22.117067 -2.962035 46.979964
RightForeArm 6.450413 0.000000 -6.130350
RightHand 8.404912 0.000000 3.777771
RightHandThumb1 -24.326973 -0.000000 -32.862282
LeftShoulder -20.184000 12.916241 40.041314
LeftArm -3.121516 -26.828536 -51.729762
LeftForeArm 24.717163 -0.000000 5.264065
LeftHand -29.733563 0.000000 5.542004
LeftHandThumb1 -26.253704 0.000000 33.147579
Head -3.331124 -2.577919 5.197605
1902
root 2.287018 32.632824 -5.397775 44.967178 3.743712 1.483928
RightUpLeg -36.182301 -17.850229 8.942609
RightLeg -3.869145 -0.000000 0.000000
RightFoot -10.299692 -0.812488 23.022709
RightToeBase 20.967449 -0.000000 -0.000000
LeftUpLeg -38.005014 11.008537 -2.858063
LeftLeg -0.217126 -0.000000 0.000000
LeftFoot -4.406931 -7.948648 -15.891641
LeftToeBase 3.126679 -0.000000 -0.000000
Spine -46.698299 1.193140 -2.790426
RightShoulder -30.657855 2.134217 -51.605938
RightArm -22.196729 -2.910109 47.041152
RightForeArm 6.635432 -0.000000 -6.110274
RightHand 8.206701 0.000000 3.465193
RightHandThumb1 -24.326973 -0.000000 -32.862282
LeftShoulder -20.210627 12.996381 40.026364
LeftArm -3.234726 -26.854411 -51.743031
LeftForeArm 24.831741 -0.000000 5.436171
LeftHand -29.773239 0.000000 5.724923
LeftHandThumb1 -26.253704 0.000000 33.147579
Head -3.270393 -2.642859 5.124215
